if (_typeface_js && _typeface_js.loadFace) _typeface_js.loadFace({"glyphs":{"\u0000":{"x_min":0,"x_max":0,"ha":1389},"¦":{"x_min":520.828125,"x_max":694.453125,"ha":1389,"o":"m 520 520 l 694 520 l 694 0 l 520 0 l 520 520 m 694 1215 l 694 694 l 520 694 l 520 1215 l 694 1215 "},"Ž":{"x_min":0,"x_max":0,"ha":1389},"Á":{"x_min":0,"x_max":1215.28125,"ha":1389,"o":"m 347 520 l 347 347 l 868 347 l 868 520 l 694 520 l 694 694 l 520 694 l 520 520 l 347 520 m 0 520 l 173 520 l 173 694 l 347 694 l 347 868 l 520 868 l 520 1041 l 694 1041 l 694 1215 l 868 1215 l 868 1041 l 694 1041 l 694 868 l 868 868 l 868 694 l 1041 694 l 1041 520 l 1215 520 l 1215 0 l 868 0 l 868 173 l 347 173 l 347 0 l 0 0 l 0 520 "},"Î":{"x_min":173.609375,"x_max":1215.28125,"ha":1389,"o":"m 520 1041 l 520 868 l 868 868 l 868 1041 l 520 1041 m 868 1215 l 868 1041 l 1041 1041 l 1041 868 l 1215 862 l 1215 694 l 868 694 l 868 173 l 1215 173 l 1215 0 l 173 0 l 173 173 l 520 173 l 520 694 l 173 694 l 173 868 l 347 868 l 347 1041 l 520 1041 l 520 1215 l 868 1215 "},"e":{"x_min":0,"x_max":1215.28125,"ha":1389,"o":"m 347 694 l 347 520 l 868 520 l 868 694 l 347 694 m 0 694 l 173 694 l 173 868 l 1041 868 l 1041 694 l 1215 694 l 1215 347 l 347 347 l 347 173 l 1041 173 l 1041 0 l 173 0 l 173 173 l 0 173 l 0 694 "},"»":{"x_min":173.609375,"x_max":1215.28125,"ha":1389,"o":"m 173 1041 l 347 1041 l 347 868 l 520 868 l 520 694 l 694 694 l 694 520 l 520 520 l 520 347 l 347 347 l 347 173 l 173 173 l 173 347 l 347 347 l 347 520 l 520 520 l 520 694 l 347 694 l 347 868 l 173 868 l 173 1041 m 694 1041 l 868 1041 l 868 868 l 1041 868 l 1041 694 l 1215 694 l 1215 520 l 1041 520 l 1041 347 l 868 347 l 868 173 l 694 173 l 694 347 l 868 347 l 868 520 l 1041 520 l 1041 694 l 868 694 l 868 868 l 694 868 l 694 1041 "},"∆":{"x_min":0,"x_max":0,"ha":1389},"♥":{"x_min":0,"x_max":1215.28125,"ha":1389,"o":"m 0 1041 l 173 1041 l 173 1215 l 520 1215 l 520 1041 l 694 1041 l 694 1215 l 1041 1215 l 1041 1041 l 1215 1041 l 1215 520 l 1041 520 l 1041 347 l 868 347 l 868 173 l 694 173 l 694 0 l 520 0 l 520 173 l 347 173 l 347 347 l 173 347 l 173 520 l 0 520 l 0 1041 "},"ò":{"x_min":173.609375,"x_max":1041.671875,"ha":1389,"o":"m 520 694 l 520 173 l 694 173 l 694 694 l 520 694 m 520 1215 l 520 1041 l 694 1041 l 694 868 l 868 862 l 868 694 l 1041 694 l 1041 173 l 868 173 l 868 0 l 347 0 l 347 173 l 173 173 l 173 694 l 347 694 l 347 868 l 520 868 l 520 1041 l 347 1041 l 347 1215 l 520 1215 "},"^":{"x_min":0,"x_max":1215.28125,"ha":1389,"o":"m 0 694 l 173 694 l 173 868 l 347 868 l 347 1041 l 520 1041 l 520 1215 l 694 1215 l 694 1041 l 868 1041 l 868 868 l 1041 868 l 1041 694 l 1215 694 l 1215 520 l 1041 520 l 1041 694 l 868 694 l 868 868 l 694 868 l 694 1041 l 520 1041 l 520 868 l 347 868 l 347 694 l 173 694 l 173 520 l 0 520 l 0 694 "},"«":{"x_min":173.609375,"x_max":1215.28125,"ha":1389,"o":"m 520 1041 l 694 1041 l 694 868 l 520 868 l 520 694 l 347 694 l 347 520 l 520 520 l 520 347 l 694 347 l 694 173 l 520 173 l 520 347 l 347 347 l 347 520 l 173 520 l 173 694 l 347 694 l 347 868 l 520 868 l 520 1041 m 1041 1041 l 1215 1041 l 1215 868 l 1041 868 l 1041 694 l 868 694 l 868 520 l 1041 520 l 1041 347 l 1215 347 l 1215 173 l 1041 173 l 1041 347 l 868 347 l 868 520 l 694 520 l 694 694 l 868 694 l 868 868 l 1041 868 l 1041 1041 "},"∙":{"x_min":347.21875,"x_max":694.453125,"ha":1389,"o":"m 347 868 l 694 868 l 694 520 l 347 520 l 347 868 "},"í":{"x_min":347.21875,"x_max":868.0625,"ha":1389,"o":"m 347 694 l 868 694 l 868 0 l 520 0 l 520 520 l 347 520 l 347 694 m 868 1215 l 868 1041 l 694 1041 l 694 868 l 520 868 l 520 1041 l 694 1041 l 694 1215 l 868 1215 "},"ˆ":{"x_min":0,"x_max":0,"ha":1389},"µ":{"x_min":0,"x_max":0,"ha":1389},"’":{"x_min":173.609375,"x_max":520.828125,"ha":1389,"o":"m 520 1215 l 520 694 l 347 694 l 347 520 l 173 520 l 173 694 l 347 694 l 347 868 l 173 868 l 173 1215 l 520 1215 "},"-":{"x_min":173.609375,"x_max":1215.28125,"ha":1389,"o":"m 173 694 l 1215 694 l 1215 520 l 173 520 l 173 694 "},"Q":{"x_min":0,"x_max":1215.28125,"ha":1389,"o":"m 347 1041 l 347 173 l 694 173 l 694 347 l 520 347 l 520 520 l 868 520 l 868 1041 l 347 1041 m 0 1041 l 173 1041 l 173 1215 l 1041 1215 l 1041 1041 l 1215 1041 l 1215 347 l 1041 347 l 1041 173 l 1215 173 l 1215 0 l 1041 0 l 1041 173 l 868 173 l 862 0 l 173 0 l 173 173 l 0 173 l 0 1041 "},"M":{"x_min":0,"x_max":1215.28125,"ha":1389,"o":"m 0 1215 l 347 1215 l 347 1041 l 520 1041 l 520 868 l 694 868 l 694 1041 l 868 1041 l 868 1215 l 1215 1215 l 1215 0 l 868 0 l 868 520 l 694 520 l 694 347 l 520 347 l 520 520 l 347 520 l 347 0 l 0 0 l 0 1215 "},"œ":{"x_min":173.609375,"x_max":1215.28125,"ha":1389,"o":"m 868 1215 l 868 1041 l 1041 1041 l 1041 868 l 1215 868 l 1215 694 l 1041 694 l 1041 520 l 868 520 l 868 694 l 1041 694 l 1041 868 l 868 868 l 868 1041 l 694 1041 l 694 173 l 520 173 l 520 0 l 347 0 l 347 173 l 173 173 l 173 347 l 347 347 l 347 520 l 520 520 l 520 1215 l 868 1215 "},"{":{"x_min":173.609375,"x_max":1041.671875,"ha":1389,"o":"m 1041 1215 l 1041 1041 l 694 1041 l 694 694 l 520 694 l 520 520 l 694 520 l 694 173 l 1041 173 l 1041 0 l 520 0 l 520 173 l 347 173 l 347 520 l 173 520 l 173 694 l 347 694 l 347 1041 l 520 1041 l 520 1215 l 1041 1215 "},"¼":{"x_min":0,"x_max":0,"ha":1389},"#":{"x_min":0,"x_max":1215.28125,"ha":1389,"o":"m 520 694 l 520 520 l 694 520 l 694 694 l 520 694 m 0 520 l 173 520 l 173 694 l 0 694 l 0 868 l 173 868 l 173 1041 l 520 1041 l 520 868 l 694 868 l 694 1041 l 1041 1041 l 1041 868 l 1215 868 l 1215 694 l 1041 694 l 1041 520 l 1215 520 l 1215 347 l 1041 347 l 1041 173 l 694 173 l 694 347 l 520 347 l 520 173 l 173 173 l 173 347 l 0 347 l 0 520 "},"Ê":{"x_min":173.609375,"x_max":1215.28125,"ha":1389,"o":"m 520 1041 l 520 868 l 868 868 l 868 1041 l 520 1041 m 868 1215 l 868 1041 l 1041 1041 l 1041 868 l 1215 862 l 1215 694 l 520 694 l 520 520 l 1041 520 l 1041 347 l 520 347 l 520 173 l 1215 173 l 1215 0 l 173 0 l 173 868 l 347 868 l 347 1041 l 520 1041 l 520 1215 l 868 1215 "},")":{"x_min":347.21875,"x_max":1041.671875,"ha":1389,"o":"m 694 1215 l 694 1041 l 868 1041 l 868 868 l 1041 868 l 1041 347 l 868 347 l 868 173 l 694 173 l 694 0 l 347 0 l 347 173 l 520 173 l 520 347 l 694 347 l 694 868 l 520 868 l 520 1041 l 347 1041 l 347 1215 l 694 1215 "},"Å":{"x_min":0,"x_max":1215.28125,"ha":1389,"o":"m 520 1041 l 520 868 l 694 868 l 694 1041 l 520 1041 m 347 520 l 347 347 l 868 347 l 868 520 l 694 520 l 694 694 l 520 694 l 520 520 l 347 520 m 0 520 l 173 520 l 173 694 l 347 694 l 347 1041 l 520 1041 l 520 1215 l 694 1215 l 694 1041 l 868 1041 l 868 694 l 1041 694 l 1041 520 l 1215 520 l 1215 0 l 868 0 l 868 173 l 347 173 l 347 0 l 0 0 l 0 520 "},"⋲":{"x_min":0,"x_max":0,"ha":1389},"¸":{"x_min":0,"x_max":0,"ha":1389},"a":{"x_min":0,"x_max":1215.28125,"ha":1389,"o":"m 347 694 l 347 173 l 868 173 l 868 694 l 347 694 m 0 694 l 173 694 l 173 868 l 1215 868 l 1215 0 l 173 0 l 173 173 l 0 173 l 0 694 "},"=":{"x_min":347.21875,"x_max":1041.671875,"ha":1389,"o":"m 347 520 l 1041 520 l 1041 347 l 347 347 l 347 520 m 347 868 l 1041 868 l 1041 694 l 347 694 l 347 868 "},"˚":{"x_min":0,"x_max":0,"ha":1389},"ú":{"x_min":173.609375,"x_max":1215.28125,"ha":1389,"o":"m 520 868 l 520 173 l 694 173 l 694 868 l 520 868 m 868 1215 l 868 1041 l 694 1041 l 694 868 l 1041 868 l 1041 173 l 1215 173 l 1215 0 l 868 0 l 868 173 l 694 173 l 694 0 l 347 0 l 347 173 l 173 173 l 173 868 l 520 868 l 520 1041 l 694 1041 l 694 1215 l 868 1215 "},"¯":{"x_min":0,"x_max":0,"ha":1389},"Z":{"x_min":0,"x_max":1215.28125,"ha":1389,"o":"m 0 347 l 173 347 l 173 520 l 347 520 l 347 694 l 520 694 l 520 868 l 694 868 l 694 1041 l 0 1041 l 0 1215 l 1215 1215 l 1215 868 l 1041 868 l 1041 694 l 868 694 l 868 520 l 694 520 l 694 347 l 520 347 l 520 173 l 1215 173 l 1215 0 l 0 0 l 0 347 "},"u":{"x_min":0,"x_max":1215.28125,"ha":1389,"o":"m 0 868 l 347 868 l 347 173 l 868 173 l 868 868 l 1215 868 l 1215 0 l 173 0 l 173 173 l 0 173 l 0 868 "},"k":{"x_min":0,"x_max":1041.671875,"ha":1389,"o":"m 0 1215 l 347 1215 l 347 520 l 520 520 l 520 694 l 694 694 l 694 868 l 1041 868 l 1041 694 l 868 694 l 868 520 l 694 520 l 694 347 l 868 347 l 868 173 l 1041 173 l 1041 0 l 694 0 l 694 173 l 520 173 l 520 347 l 347 347 l 347 0 l 0 0 l 0 1215 "},"Ù":{"x_min":0,"x_max":1215.28125,"ha":1389,"o":"m 520 1215 l 520 1041 l 694 1041 l 694 868 l 520 868 l 520 1041 l 347 1041 l 347 1215 l 520 1215 m 0 868 l 347 868 l 347 173 l 868 173 l 868 868 l 1215 868 l 1215 173 l 1041 173 l 1041 0 l 173 0 l 173 173 l 0 173 l 0 868 "},"¢":{"x_min":173.609375,"x_max":1041.671875,"ha":1389,"o":"m 347 868 l 347 347 l 520 347 l 520 868 l 347 868 m 694 1215 l 694 1041 l 868 1041 l 868 868 l 1041 868 l 1041 694 l 868 694 l 868 868 l 694 868 l 694 347 l 868 347 l 868 520 l 1041 520 l 1041 347 l 868 347 l 868 173 l 694 173 l 694 0 l 520 0 l 520 173 l 347 173 l 347 347 l 173 347 l 173 868 l 347 868 l 347 1041 l 520 1041 l 520 1215 l 694 1215 "},"é":{"x_min":173.609375,"x_max":1041.671875,"ha":1389,"o":"m 520 694 l 520 520 l 868 520 l 868 694 l 520 694 m 868 1215 l 868 1041 l 694 1041 l 694 868 l 868 862 l 868 694 l 1041 694 l 1041 347 l 520 347 l 520 173 l 868 173 l 868 0 l 347 0 l 347 173 l 173 173 l 173 694 l 347 694 l 347 868 l 520 868 l 520 1041 l 694 1041 l 694 1215 l 868 1215 "},"B":{"x_min":0,"x_max":1215.28125,"ha":1389,"o":"m 347 520 l 347 173 l 868 173 l 868 520 l 347 520 m 347 1041 l 347 694 l 868 694 l 868 1041 l 347 1041 m 0 1215 l 1041 1215 l 1041 1041 l 1215 1041 l 1215 694 l 1041 694 l 1041 520 l 1215 520 l 1215 173 l 1041 173 l 1041 0 l 0 0 l 0 1215 "},"…":{"x_min":0,"x_max":1215.28125,"ha":1389,"o":"m 0 520 l 173 520 l 173 173 l 0 173 l 0 520 m 520 520 l 694 520 l 694 173 l 520 173 l 520 520 m 1041 520 l 1215 520 l 1215 173 l 1041 173 l 1041 520 "},"H":{"x_min":0,"x_max":1215.28125,"ha":1389,"o":"m 0 1215 l 347 1215 l 347 694 l 868 694 l 868 1215 l 1215 1215 l 1215 0 l 868 0 l 868 520 l 347 520 l 347 0 l 0 0 l 0 1215 "},"î":{"x_min":173.609375,"x_max":1041.671875,"ha":1389,"o":"m 347 694 l 868 694 l 868 0 l 520 0 l 520 520 l 347 520 l 347 694 m 868 1215 l 868 1041 l 1041 1041 l 1041 868 l 868 868 l 868 1041 l 347 1041 l 347 868 l 173 868 l 173 1041 l 347 1041 l 347 1215 l 868 1215 "},"−":{"x_min":173.609375,"x_max":1041.671875,"ha":1389,"o":"m 173 694 l 1041 694 l 1041 520 l 173 520 l 173 694 "},"≠":{"x_min":0,"x_max":0,"ha":1389},"¥":{"x_min":173.609375,"x_max":1215.28125,"ha":1389,"o":"m 520 1215 l 520 694 l 868 694 l 868 1215 l 1215 1215 l 1215 694 l 1041 694 l 1041 520 l 868 520 l 868 347 l 1215 347 l 1215 173 l 868 173 l 868 0 l 520 0 l 520 173 l 173 173 l 173 347 l 520 347 l 520 520 l 347 520 l 347 694 l 173 694 l 173 1215 l 520 1215 "},"U":{"x_min":0,"x_max":1215.28125,"ha":1389,"o":"m 0 1215 l 347 1215 l 347 173 l 868 173 l 868 1215 l 1215 1215 l 1215 173 l 1041 173 l 1041 0 l 173 0 l 173 173 l 0 173 l 0 1215 "},"Ñ":{"x_min":0,"x_max":1215.28125,"ha":1389,"o":"m 347 1041 l 347 694 l 520 694 l 520 520 l 694 520 l 694 347 l 868 347 l 868 868 l 520 868 l 520 1041 l 347 1041 m 0 868 l 173 868 l 173 1041 l 347 1041 l 352 1215 l 694 1215 l 694 1041 l 868 1041 l 868 1215 l 1041 1215 l 1041 1041 l 868 1041 l 868 868 l 1215 868 l 1215 0 l 868 0 l 868 173 l 694 173 l 694 347 l 520 347 l 520 520 l 347 520 l 347 0 l 0 0 l 0 868 "},"F":{"x_min":0,"x_max":1215.28125,"ha":1389,"o":"m 0 1215 l 1215 1215 l 1215 1041 l 347 1041 l 347 694 l 1041 694 l 1041 520 l 347 520 l 347 0 l 0 0 l 0 1215 "},"*":{"x_min":0,"x_max":1215.28125,"ha":1389,"o":"m 0 694 l 347 694 l 347 868 l 173 868 l 173 1041 l 520 1041 l 520 868 l 694 868 l 694 1041 l 1041 1041 l 1041 868 l 868 868 l 868 694 l 1215 694 l 1215 520 l 868 520 l 868 347 l 1041 347 l 1041 173 l 694 173 l 694 347 l 520 347 l 520 173 l 173 173 l 173 347 l 347 347 l 347 520 l 0 520 l 0 694 "},"†":{"x_min":173.609375,"x_max":1215.28125,"ha":1389,"o":"m 868 1215 l 868 1041 l 1041 1041 l 1041 868 l 1215 868 l 1215 694 l 868 694 l 868 0 l 520 0 l 520 694 l 173 694 l 173 868 l 347 868 l 347 1041 l 520 1041 l 520 1215 l 868 1215 "},"°":{"x_min":173.609375,"x_max":1041.671875,"ha":1389,"o":"m 347 1041 l 347 520 l 868 520 l 868 1041 l 347 1041 m 347 1215 l 868 1215 l 868 1041 l 1041 1041 l 1041 520 l 868 520 l 868 347 l 347 347 l 347 520 l 173 520 l 173 1041 l 347 1041 l 347 1215 "},"å":{"x_min":173.609375,"x_max":1215.28125,"ha":1389,"o":"m 520 520 l 520 173 l 694 173 l 694 520 l 520 520 m 520 1041 l 520 868 l 694 868 l 694 1041 l 520 1041 m 694 1215 l 694 1041 l 868 1041 l 868 868 l 694 868 l 694 694 l 1041 694 l 1041 173 l 1215 173 l 1215 0 l 868 0 l 868 173 l 694 173 l 694 0 l 347 0 l 347 173 l 173 173 l 173 520 l 347 520 l 347 694 l 520 694 l 520 868 l 347 868 l 347 1041 l 520 1041 l 520 1215 l 694 1215 "},"0":{"x_min":0,"x_max":1215.28125,"ha":1389,"o":"m 347 1041 l 347 347 l 520 347 l 520 173 l 868 173 l 868 868 l 694 868 l 694 1041 l 347 1041 m 0 868 l 173 868 l 173 1041 l 347 1041 l 347 1215 l 868 1215 l 868 1041 l 1041 1041 l 1041 868 l 1215 868 l 1215 347 l 1041 347 l 1041 173 l 868 173 l 868 0 l 347 0 l 347 173 l 173 173 l 173 347 l 0 347 l 0 868 "},"":{"x_min":0,"x_max":0,"ha":1389},"”":{"x_min":0,"x_max":1041.671875,"ha":1389,"o":"m 0 868 l 173 868 l 173 1215 l 520 1215 l 520 868 l 694 868 l 694 1215 l 1041 1215 l 1041 868 l 868 868 l 868 694 l 520 694 l 520 868 l 347 868 l 347 694 l 0 694 l 0 868 "},"ö":{"x_min":173.609375,"x_max":1041.671875,"ha":1389,"o":"m 520 1215 l 520 1041 l 347 1041 l 347 1215 l 520 1215 m 520 694 l 520 173 l 694 173 l 694 694 l 520 694 m 868 1215 l 868 1041 l 694 1041 l 694 1215 l 868 1215 m 347 868 l 868 868 l 868 694 l 1041 694 l 1041 173 l 868 173 l 868 0 l 347 0 l 347 173 l 173 173 l 173 694 l 347 694 l 347 868 "},"Õ":{"x_min":0,"x_max":1215.28125,"ha":1389,"o":"m 347 1041 l 347 868 l 520 868 l 520 1041 l 347 1041 m 347 694 l 347 173 l 868 173 l 868 694 l 347 694 m 0 694 l 173 694 l 173 1041 l 347 1041 l 352 1215 l 694 1215 l 694 1041 l 868 1041 l 868 1215 l 1041 1215 l 1041 1041 l 868 1041 l 868 868 l 1041 862 l 1041 694 l 1215 694 l 1215 173 l 1041 173 l 1041 0 l 173 0 l 173 173 l 0 173 l 0 694 "},"þ":{"x_min":173.609375,"x_max":1215.28125,"ha":1389,"o":"m 694 694 l 694 347 l 868 347 l 868 694 l 694 694 m 520 1215 l 520 1041 l 694 1036 l 694 868 l 1041 868 l 1041 694 l 1215 694 l 1215 347 l 1041 347 l 1041 173 l 694 173 l 694 -173 l 347 -173 l 347 1041 l 173 1041 l 173 1215 l 520 1215 "},"]":{"x_min":347.21875,"x_max":1041.671875,"ha":1389,"o":"m 1041 1215 l 1041 0 l 347 0 l 347 173 l 694 173 l 694 1041 l 347 1041 l 347 1215 l 1041 1215 "},"8":{"x_min":0,"x_max":1215.28125,"ha":1389,"o":"m 173 520 l 173 173 l 868 173 l 868 347 l 520 347 l 520 520 l 173 520 m 173 1041 l 173 868 l 347 868 l 347 694 l 868 694 l 868 1041 l 173 1041 m 0 520 l 173 520 l 173 694 l 0 694 l 0 1041 l 173 1041 l 173 1215 l 868 1215 l 868 1041 l 1041 1041 l 1041 694 l 868 694 l 868 520 l 1215 520 l 1215 173 l 1041 173 l 1041 0 l 173 0 l 173 173 l 0 173 l 0 520 "},"R":{"x_min":0,"x_max":1215.28125,"ha":1389,"o":"m 347 1041 l 347 520 l 694 520 l 694 694 l 868 694 l 868 1041 l 347 1041 m 0 1215 l 1041 1215 l 1041 1041 l 1215 1041 l 1215 520 l 868 520 l 868 347 l 1041 347 l 1041 173 l 1215 173 l 1215 0 l 694 0 l 694 173 l 520 173 l 520 347 l 347 347 l 347 0 l 0 0 l 0 1215 "},"o":{"x_min":0,"x_max":1215.28125,"ha":1389,"o":"m 347 694 l 347 173 l 868 173 l 868 694 l 347 694 m 0 694 l 173 694 l 173 868 l 1041 868 l 1041 694 l 1215 694 l 1215 173 l 1041 173 l 1041 0 l 173 0 l 173 173 l 0 173 l 0 694 "},"5":{"x_min":0,"x_max":1215.28125,"ha":1389,"o":"m 0 347 l 347 347 l 347 173 l 868 173 l 868 694 l 0 694 l 0 1215 l 1041 1215 l 1041 1041 l 347 1041 l 347 868 l 1041 868 l 1041 694 l 1215 694 l 1215 173 l 1041 173 l 1041 0 l 173 0 l 173 173 l 0 173 l 0 347 "},"õ":{"x_min":173.609375,"x_max":1041.671875,"ha":1389,"o":"m 347 1041 l 347 868 l 520 868 l 520 1041 l 347 1041 m 520 694 l 520 173 l 694 173 l 694 694 l 520 694 m 694 1215 l 694 1041 l 868 1041 l 868 1215 l 1041 1215 l 1041 1041 l 868 1041 l 868 694 l 1041 694 l 1041 173 l 868 173 l 868 0 l 347 0 l 347 173 l 173 173 l 173 694 l 347 694 l 347 868 l 173 868 l 173 1041 l 347 1041 l 347 1215 l 694 1215 "},",":{"x_min":347.21875,"x_max":868.0625,"ha":1389,"o":"m 520 347 l 868 347 l 868 0 l 694 0 l 694 -173 l 347 -173 l 347 0 l 520 0 l 520 347 "},"d":{"x_min":0,"x_max":1215.28125,"ha":1389,"o":"m 347 694 l 347 173 l 868 173 l 868 694 l 347 694 m 0 694 l 173 694 l 173 868 l 868 868 l 868 1215 l 1215 1215 l 1215 0 l 173 0 l 173 173 l 0 173 l 0 694 "},"\"":{"x_min":173.609375,"x_max":1041.671875,"ha":1389,"o":"m 520 1215 l 520 694 l 173 694 l 173 1215 l 520 1215 m 1041 1215 l 1041 694 l 694 694 l 694 1215 l 1041 1215 "},"˙":{"x_min":0,"x_max":0,"ha":1389},"ê":{"x_min":173.609375,"x_max":1041.671875,"ha":1389,"o":"m 520 694 l 520 520 l 868 520 l 868 694 l 520 694 m 347 1041 l 347 868 l 868 868 l 868 1041 l 347 1041 m 868 1215 l 868 1041 l 1041 1041 l 1041 868 l 868 868 l 868 694 l 1041 694 l 1041 347 l 520 347 l 520 173 l 868 173 l 868 0 l 347 0 l 347 173 l 173 173 l 173 694 l 347 694 l 347 868 l 173 868 l 173 1041 l 347 1041 l 347 1215 l 868 1215 "},"„":{"x_min":0,"x_max":0,"ha":1389},"Â":{"x_min":0,"x_max":1215.28125,"ha":1389,"o":"m 347 520 l 347 347 l 868 347 l 868 520 l 694 520 l 694 694 l 520 694 l 520 520 l 347 520 m 347 1041 l 347 868 l 868 868 l 868 1041 l 347 1041 m 0 520 l 173 520 l 173 694 l 347 694 l 347 868 l 173 868 l 173 1041 l 347 1041 l 347 1215 l 868 1215 l 868 1041 l 1041 1041 l 1041 868 l 868 868 l 868 694 l 1041 694 l 1041 520 l 1215 520 l 1215 0 l 868 0 l 868 173 l 347 173 l 347 0 l 0 0 l 0 520 "},"Í":{"x_min":173.609375,"x_max":1215.28125,"ha":1389,"o":"m 868 1215 l 868 1041 l 694 1041 l 694 868 l 1215 868 l 1215 694 l 868 694 l 868 173 l 1215 173 l 1215 0 l 173 0 l 173 173 l 520 173 l 520 694 l 173 694 l 173 868 l 520 868 l 520 1041 l 694 1041 l 694 1215 l 868 1215 "},"´":{"x_min":0,"x_max":0,"ha":1389},"Ú":{"x_min":0,"x_max":1215.28125,"ha":1389,"o":"m 868 1215 l 868 1041 l 694 1041 l 694 868 l 520 868 l 520 1041 l 694 1041 l 694 1215 l 868 1215 m 0 868 l 347 868 l 347 173 l 868 173 l 868 868 l 1215 868 l 1215 173 l 1041 173 l 1041 0 l 173 0 l 173 173 l 0 173 l 0 868 "},"Ý":{"x_min":173.609375,"x_max":1215.28125,"ha":1389,"o":"m 868 1215 l 868 1041 l 694 1041 l 694 868 l 520 868 l 520 520 l 868 520 l 868 868 l 1215 868 l 1215 520 l 1041 520 l 1041 347 l 868 347 l 868 0 l 520 0 l 520 347 l 347 347 l 347 520 l 173 520 l 173 868 l 520 868 l 520 1041 l 694 1041 l 694 1215 l 868 1215 "},"Ω":{"x_min":0,"x_max":0,"ha":1389},"Ö":{"x_min":0,"x_max":1215.28125,"ha":1389,"o":"m 520 1215 l 520 1041 l 347 1041 l 347 1215 l 520 1215 m 347 694 l 347 173 l 868 173 l 868 694 l 347 694 m 868 1215 l 868 1041 l 694 1041 l 694 1215 l 868 1215 m 0 694 l 173 694 l 179 868 l 1041 868 l 1041 694 l 1215 694 l 1215 173 l 1041 173 l 1041 0 l 173 0 l 173 173 l 0 173 l 0 694 "},"z":{"x_min":0,"x_max":1215.28125,"ha":1389,"o":"m 0 173 l 173 173 l 173 347 l 347 347 l 347 520 l 520 520 l 520 694 l 0 694 l 0 868 l 1215 868 l 1215 694 l 1041 694 l 1041 520 l 868 520 l 868 347 l 694 347 l 694 173 l 1215 173 l 1215 0 l 0 0 l 0 173 "},"™":{"x_min":0,"x_max":1215.28125,"ha":1389,"o":"m 0 1215 l 520 1215 l 520 1041 l 347 1041 l 347 347 l 173 347 l 173 1041 l 0 1041 l 0 1215 m 868 1215 l 868 1041 l 1041 1041 l 1041 1215 l 1215 1215 l 1215 347 l 1041 347 l 1041 694 l 868 694 l 868 347 l 694 347 l 694 1215 l 868 1215 "},"ã":{"x_min":173.609375,"x_max":1215.28125,"ha":1389,"o":"m 347 1041 l 347 868 l 520 868 l 520 1041 l 347 1041 m 520 694 l 520 173 l 694 173 l 694 694 l 520 694 m 694 1215 l 694 1041 l 868 1041 l 868 1215 l 1041 1215 l 1041 1041 l 868 1041 l 868 868 l 1041 868 l 1041 173 l 1215 173 l 1215 0 l 868 0 l 868 173 l 694 173 l 694 0 l 347 0 l 347 173 l 173 173 l 173 694 l 347 694 l 347 868 l 173 868 l 173 1041 l 347 1041 l 347 1215 l 694 1215 "},"æ":{"x_min":0,"x_max":1215.28125,"ha":1389,"o":"m 347 347 l 347 173 l 520 173 l 520 347 l 347 347 m 868 694 l 868 520 l 1041 520 l 1041 694 l 868 694 m 0 347 l 173 347 l 173 520 l 520 520 l 520 694 l 173 694 l 173 868 l 1041 868 l 1041 694 l 1215 694 l 1215 347 l 868 347 l 868 173 l 1215 173 l 1215 0 l 173 0 l 173 173 l 0 173 l 0 347 "},"É":{"x_min":173.609375,"x_max":1215.28125,"ha":1389,"o":"m 868 1215 l 868 1041 l 694 1041 l 694 868 l 1215 868 l 1215 694 l 520 694 l 520 520 l 1041 520 l 1041 347 l 520 347 l 520 173 l 1215 173 l 1215 0 l 173 0 l 173 868 l 520 868 l 520 1041 l 694 1041 l 694 1215 l 868 1215 "},"~":{"x_min":0,"x_max":1215.28125,"ha":1389,"o":"m 0 694 l 173 694 l 173 868 l 520 868 l 520 694 l 694 694 l 694 520 l 1041 520 l 1041 694 l 1215 694 l 1215 347 l 1041 347 l 1041 173 l 694 173 l 694 347 l 520 347 l 520 520 l 173 520 l 173 347 l 0 347 l 0 694 "},"³":{"x_min":173.609375,"x_max":1215.28125,"ha":1389,"o":"m 173 694 l 520 694 l 520 520 l 868 520 l 868 694 l 694 694 l 694 868 l 868 868 l 868 1041 l 520 1041 l 520 868 l 173 868 l 173 1041 l 347 1041 l 347 1215 l 1041 1215 l 1041 1041 l 1215 1041 l 1215 868 l 1041 868 l 1041 694 l 1215 694 l 1215 520 l 1041 520 l 1041 347 l 347 347 l 347 520 l 173 520 l 173 694 "},"¡":{"x_min":347.21875,"x_max":1041.671875,"ha":1389,"o":"m 520 1041 l 520 1215 l 868 1215 l 868 1041 l 520 1041 m 868 0 l 520 0 l 520 173 l 347 173 l 347 694 l 520 694 l 520 868 l 868 868 l 868 694 l 1041 694 l 1041 173 l 868 173 l 868 0 "},"[":{"x_min":347.21875,"x_max":1041.671875,"ha":1389,"o":"m 1041 1215 l 1041 1041 l 694 1041 l 694 173 l 1041 173 l 1041 0 l 347 0 l 347 1215 l 1041 1215 "},"%":{"x_min":173.609375,"x_max":1215.28125,"ha":1389,"o":"m 520 1215 l 520 868 l 173 868 l 173 1215 l 520 1215 m 868 347 l 1215 347 l 1215 0 l 868 0 l 868 347 m 1215 1215 l 1215 868 l 1041 868 l 1041 694 l 868 694 l 868 520 l 694 520 l 694 347 l 520 347 l 520 173 l 347 173 l 347 0 l 173 0 l 173 347 l 347 347 l 347 520 l 520 520 l 520 694 l 694 694 l 694 868 l 868 868 l 868 1041 l 1041 1041 l 1041 1215 l 1215 1215 "},"P":{"x_min":0,"x_max":1215.28125,"ha":1389,"o":"m 347 1041 l 347 520 l 868 520 l 868 1041 l 347 1041 m 0 1215 l 1041 1215 l 1041 1041 l 1215 1041 l 1215 520 l 1041 520 l 1041 347 l 347 347 l 347 0 l 0 0 l 0 1215 "},"∏":{"x_min":0,"x_max":1215.28125,"ha":1389,"o":"m 0 868 l 173 868 l 179 1041 l 347 1041 l 353 1215 l 1041 1215 l 1041 1041 l 1215 1041 l 1215 868 l 868 868 l 868 694 l 520 694 l 520 520 l 868 520 l 868 347 l 1215 347 l 1215 173 l 1041 173 l 1041 0 l 347 0 l 347 173 l 173 173 l 173 347 l 0 347 l 0 868 "},"_":{"x_min":0,"x_max":1215.28125,"ha":1389,"o":"m 0 0 l 1215 0 l 1215 -173 l 0 -173 l 0 0 "},"ñ":{"x_min":173.609375,"x_max":1215.28125,"ha":1389,"o":"m 173 694 l 347 694 l 347 520 l 520 520 l 520 694 l 1041 694 l 1041 520 l 1215 520 l 1215 0 l 868 0 l 868 520 l 694 520 l 694 0 l 347 0 l 347 520 l 173 520 l 173 694 m 868 1215 l 868 1041 l 1041 1041 l 1041 1215 l 1215 1215 l 1215 1041 l 1041 1041 l 1041 868 l 694 868 l 694 1041 l 520 1041 l 520 868 l 347 868 l 347 1041 l 520 1041 l 520 1215 l 868 1215 "},"‚":{"x_min":0,"x_max":0,"ha":1389},"Æ":{"x_min":0,"x_max":1215.28125,"ha":1389,"o":"m 347 868 l 347 520 l 520 520 l 520 868 l 347 868 m 0 868 l 173 868 l 173 1041 l 347 1041 l 352 1215 l 1215 1215 l 1215 1041 l 868 1041 l 868 694 l 1041 694 l 1041 520 l 868 520 l 868 173 l 1215 173 l 1215 0 l 520 0 l 520 347 l 347 347 l 347 0 l 0 0 l 0 868 "},"ª":{"x_min":0,"x_max":0,"ha":1389},"Œ":{"x_min":0,"x_max":1215.28125,"ha":1389,"o":"m 0 1041 l 173 1041 l 173 1215 l 520 1215 l 520 1041 l 694 1041 l 694 1215 l 1041 1215 l 1041 1041 l 1215 1041 l 1215 520 l 1041 520 l 1041 347 l 868 347 l 868 173 l 694 173 l 694 0 l 520 0 l 520 173 l 347 173 l 347 347 l 173 347 l 173 520 l 0 520 l 0 1041 "},"T":{"x_min":173.609375,"x_max":1215.28125,"ha":1389,"o":"m 1215 1215 l 1215 1041 l 868 1041 l 868 0 l 520 0 l 520 1041 l 173 1041 l 173 1215 l 1215 1215 "},"š":{"x_min":0,"x_max":1215.28125,"ha":1389,"o":"m 173 520 l 173 347 l 520 347 l 520 868 l 173 868 l 173 694 l 347 694 l 347 520 l 173 520 m 694 520 l 694 347 l 1041 347 l 1041 868 l 694 868 l 694 694 l 868 694 l 868 520 l 694 520 m 0 868 l 173 868 l 173 1041 l 347 1041 l 347 1215 l 868 1215 l 868 1041 l 1041 1041 l 1041 868 l 1215 868 l 1215 0 l 1041 0 l 1041 173 l 868 173 l 861 0 l 520 0 l 520 173 l 347 173 l 347 0 l 0 0 l 0 868 "},"Þ":{"x_min":0,"x_max":1215.28125,"ha":1389,"o":"m 347 868 l 347 347 l 868 347 l 868 868 l 347 868 m 0 1215 l 347 1215 l 347 1041 l 1041 1041 l 1041 868 l 1215 868 l 1215 347 l 1041 347 l 1041 173 l 347 173 l 347 0 l 0 0 l 0 1215 "},"j":{"x_min":173.609375,"x_max":868.0625,"ha":1389,"o":"m 347 868 l 868 868 l 868 0 l 694 0 l 694 -173 l 173 -173 l 173 0 l 520 0 l 520 694 l 347 694 l 347 868 m 868 1215 l 868 1041 l 520 1041 l 520 1215 l 868 1215 "},"1":{"x_min":173.609375,"x_max":1215.28125,"ha":1389,"o":"m 868 1215 l 868 173 l 1215 173 l 1215 0 l 173 0 l 173 173 l 520 173 l 520 868 l 347 868 l 347 1041 l 520 1041 l 520 1215 l 868 1215 "},"›":{"x_min":520.828125,"x_max":1041.671875,"ha":1389,"o":"m 694 1041 l 694 868 l 868 868 l 868 694 l 1041 694 l 1041 520 l 868 520 l 868 347 l 694 347 l 694 173 l 520 173 l 520 347 l 694 347 l 694 520 l 868 520 l 868 694 l 694 694 l 694 868 l 520 868 l 520 1041 l 694 1041 "},"<":{"x_min":173.609375,"x_max":1041.671875,"ha":1389,"o":"m 1041 1215 l 1041 1041 l 868 1041 l 868 868 l 694 868 l 694 694 l 520 694 l 520 520 l 694 520 l 694 347 l 868 347 l 868 173 l 1041 173 l 1041 0 l 694 0 l 694 173 l 520 173 l 520 347 l 347 347 l 347 520 l 173 520 l 173 694 l 347 694 l 347 868 l 520 868 l 520 1041 l 694 1041 l 694 1215 l 1041 1215 "},"t":{"x_min":0,"x_max":1215.28125,"ha":1389,"o":"m 0 868 l 347 868 l 347 1041 l 694 1041 l 694 868 l 1041 868 l 1041 694 l 694 694 l 694 173 l 868 173 l 868 347 l 1215 347 l 1215 173 l 1041 173 l 1041 0 l 520 0 l 520 173 l 347 173 l 347 694 l 0 694 l 0 868 "},"¬":{"x_min":0,"x_max":0,"ha":1389},"ù":{"x_min":173.609375,"x_max":1215.28125,"ha":1389,"o":"m 520 868 l 520 173 l 694 173 l 694 868 l 520 868 m 520 1215 l 520 1041 l 694 1041 l 694 868 l 1041 868 l 1041 173 l 1215 173 l 1215 0 l 868 0 l 868 173 l 694 173 l 694 0 l 347 0 l 347 173 l 173 173 l 173 868 l 520 868 l 520 1041 l 347 1041 l 347 1215 l 520 1215 "},"ï":{"x_min":347.21875,"x_max":868.0625,"ha":1389,"o":"m 347 1041 l 520 1041 l 520 868 l 347 868 l 347 1041 m 347 694 l 868 694 l 868 0 l 520 0 l 520 520 l 347 520 l 347 694 m 694 1041 l 868 1041 l 868 868 l 694 868 l 694 1041 "},"Ò":{"x_min":0,"x_max":1215.28125,"ha":1389,"o":"m 347 694 l 347 173 l 868 173 l 868 694 l 347 694 m 0 694 l 173 694 l 173 868 l 520 868 l 520 1041 l 347 1041 l 347 1215 l 520 1215 l 520 1041 l 694 1041 l 694 868 l 1041 868 l 1041 694 l 1215 694 l 1215 173 l 1041 173 l 1041 0 l 173 0 l 173 173 l 0 173 l 0 694 "},"&":{"x_min":0,"x_max":1215.28125,"ha":1389,"o":"m 347 520 l 347 173 l 694 173 l 694 347 l 520 347 l 520 520 l 347 520 m 520 1041 l 520 868 l 694 868 l 694 1041 l 520 1041 m 694 694 l 694 520 l 868 520 l 868 694 l 694 694 m 0 520 l 173 520 l 173 694 l 347 694 l 347 868 l 173 868 l 173 1041 l 347 1041 l 347 1215 l 868 1215 l 868 1041 l 1041 1041 l 1041 868 l 868 868 l 868 694 l 1215 694 l 1215 520 l 1041 520 l 1041 173 l 1215 173 l 1215 0 l 868 0 l 868 173 l 694 173 l 694 0 l 173 0 l 173 173 l 0 173 l 0 520 "},"˝":{"x_min":0,"x_max":0,"ha":1389},"I":{"x_min":173.609375,"x_max":1215.28125,"ha":1389,"o":"m 1215 1215 l 1215 1041 l 868 1041 l 868 173 l 1215 173 l 1215 0 l 173 0 l 173 173 l 520 173 l 520 1041 l 173 1041 l 173 1215 l 1215 1215 "},"G":{"x_min":0,"x_max":1215.28125,"ha":1389,"o":"m 0 868 l 173 868 l 173 1041 l 347 1041 l 347 1215 l 1215 1215 l 1215 1041 l 520 1041 l 520 868 l 347 868 l 347 347 l 520 347 l 520 173 l 868 173 l 868 520 l 694 520 l 694 694 l 1215 694 l 1215 0 l 347 0 l 347 173 l 173 173 l 173 347 l 0 347 l 0 868 "},"`":{"x_min":173.609375,"x_max":694.453125,"ha":1389,"o":"m 520 1215 l 520 1041 l 694 1041 l 694 868 l 347 868 l 347 1041 l 173 1041 l 173 1215 l 520 1215 "},"·":{"x_min":347.21875,"x_max":694.453125,"ha":1389,"o":"m 347 868 l 694 868 l 694 520 l 347 520 l 347 868 "},"¿":{"x_min":0,"x_max":1215.28125,"ha":1389,"o":"m 868 1041 l 347 1041 l 347 1215 l 868 1215 l 868 1041 m 1215 173 l 1041 173 l 1041 0 l 173 0 l 173 173 l 0 173 l 0 520 l 173 520 l 173 694 l 347 694 l 347 868 l 868 868 l 868 694 l 694 694 l 694 520 l 347 520 l 347 173 l 868 173 l 868 347 l 1215 347 l 1215 173 "},"ý":{"x_min":173.609375,"x_max":1215.28125,"ha":1389,"o":"m 1041 1215 l 1041 1041 l 868 1041 l 868 868 l 694 868 l 694 1041 l 868 1041 l 868 1215 l 1041 1215 m 173 868 l 520 868 l 520 694 l 694 694 l 694 520 l 868 520 l 868 694 l 1041 694 l 1041 868 l 1215 868 l 1215 694 l 1041 694 l 1041 347 l 868 347 l 868 173 l 694 173 l 694 -173 l 347 -173 l 347 0 l 520 0 l 520 173 l 694 173 l 694 347 l 520 347 l 520 520 l 347 520 l 347 694 l 173 694 l 173 868 "},"º":{"x_min":0,"x_max":0,"ha":1389},"∞":{"x_min":0,"x_max":0,"ha":1389},";":{"x_min":347.21875,"x_max":868.0625,"ha":1389,"o":"m 520 347 l 868 347 l 868 0 l 694 0 l 694 -173 l 347 -173 l 347 0 l 520 0 l 520 347 m 520 868 l 868 868 l 868 520 l 520 520 l 520 868 "},"6":{"x_min":0,"x_max":1215.28125,"ha":1389,"o":"m 347 520 l 347 173 l 868 173 l 868 520 l 347 520 m 0 868 l 173 868 l 173 1041 l 347 1041 l 347 1215 l 1041 1215 l 1041 1041 l 520 1041 l 520 868 l 347 868 l 347 694 l 1041 694 l 1041 520 l 1215 520 l 1215 173 l 1041 173 l 1041 0 l 173 0 l 173 173 l 0 173 l 0 868 "},"n":{"x_min":0,"x_max":1215.28125,"ha":1389,"o":"m 0 868 l 1041 868 l 1041 694 l 1215 694 l 1215 0 l 868 0 l 868 694 l 347 694 l 347 0 l 0 0 l 0 868 "},"¤":{"x_min":0,"x_max":1215.28125,"ha":1389,"o":"m 0 520 l 173 520 l 173 694 l 0 694 l 0 868 l 347 868 l 347 1041 l 520 1041 l 520 1215 l 1041 1215 l 1041 1041 l 1215 1041 l 1215 868 l 1041 868 l 1041 1041 l 694 1041 l 694 868 l 868 868 l 868 694 l 520 694 l 520 520 l 868 520 l 868 347 l 694 347 l 694 173 l 1041 173 l 1041 347 l 1215 347 l 1215 173 l 1041 173 l 1041 0 l 520 0 l 520 173 l 347 173 l 347 347 l 0 347 l 0 520 "},"∂":{"x_min":0,"x_max":0,"ha":1389},"p":{"x_min":0,"x_max":1215.28125,"ha":1389,"o":"m 347 694 l 347 173 l 868 173 l 868 694 l 347 694 m 0 868 l 1041 868 l 1041 694 l 1215 694 l 1215 173 l 1041 173 l 1041 0 l 347 0 l 347 -173 l 0 -173 l 0 868 "},"‡":{"x_min":173.609375,"x_max":1215.28125,"ha":1389,"o":"m 868 1215 l 868 520 l 1215 520 l 1215 347 l 1041 347 l 1041 173 l 868 173 l 868 0 l 520 0 l 520 173 l 347 173 l 347 347 l 173 347 l 173 520 l 520 520 l 520 1215 l 868 1215 "},"√":{"x_min":0,"x_max":0,"ha":1389},"S":{"x_min":0,"x_max":1215.28125,"ha":1389,"o":"m 0 347 l 347 347 l 347 173 l 868 173 l 868 520 l 173 520 l 173 694 l 0 694 l 0 1041 l 173 1041 l 173 1215 l 868 1215 l 868 1041 l 1041 1041 l 1041 868 l 694 868 l 694 1041 l 347 1041 l 347 694 l 1041 694 l 1041 520 l 1215 520 l 1215 173 l 1041 173 l 1041 0 l 173 0 l 173 173 l 0 173 l 0 347 "},"/":{"x_min":173.609375,"x_max":1215.28125,"ha":1389,"o":"m 1215 1215 l 1215 868 l 1041 868 l 1041 694 l 868 694 l 868 520 l 694 520 l 694 347 l 520 347 l 520 173 l 347 173 l 347 0 l 173 0 l 173 347 l 347 347 l 347 520 l 520 520 l 520 694 l 694 694 l 694 868 l 868 868 l 868 1041 l 1041 1041 l 1041 1215 l 1215 1215 "},"y":{"x_min":0,"x_max":1215.28125,"ha":1389,"o":"m 0 868 l 347 868 l 347 347 l 868 347 l 868 868 l 1215 868 l 1215 0 l 1041 0 l 1041 -173 l 173 -173 l 173 0 l 868 0 l 868 173 l 173 173 l 173 347 l 0 347 l 0 868 "},"≈":{"x_min":0,"x_max":0,"ha":1389},"g":{"x_min":0,"x_max":1215.28125,"ha":1389,"o":"m 347 694 l 347 347 l 868 347 l 868 694 l 347 694 m 0 694 l 173 694 l 173 868 l 1215 868 l 1215 0 l 1041 0 l 1041 -173 l 173 -173 l 173 0 l 868 0 l 868 173 l 173 173 l 173 347 l 0 347 l 0 694 "},"²":{"x_min":173.609375,"x_max":1215.28125,"ha":1389,"o":"m 173 868 l 173 1041 l 347 1041 l 347 1215 l 1041 1215 l 1041 1041 l 1215 1036 l 1215 868 l 1041 868 l 1041 694 l 694 694 l 694 520 l 1215 520 l 1215 347 l 173 347 l 173 520 l 347 520 l 347 694 l 694 694 l 694 868 l 868 868 l 868 1041 l 520 1041 l 520 868 l 173 868 "},"ë":{"x_min":173.609375,"x_max":1041.671875,"ha":1389,"o":"m 520 1215 l 520 1041 l 347 1041 l 347 1215 l 520 1215 m 520 694 l 520 520 l 868 520 l 868 694 l 520 694 m 868 1215 l 868 1041 l 694 1041 l 694 1215 l 868 1215 m 347 868 l 868 868 l 868 694 l 1041 694 l 1041 347 l 520 347 l 520 173 l 868 173 l 868 0 l 347 0 l 347 173 l 173 173 l 173 694 l 347 694 l 347 868 "},"–":{"x_min":173.609375,"x_max":1041.671875,"ha":1389,"o":"m 173 694 l 1041 694 l 1041 520 l 173 520 l 173 694 "},"ƒ":{"x_min":0,"x_max":0,"ha":1389},"J":{"x_min":0,"x_max":1215.28125,"ha":1389,"o":"m 0 347 l 347 347 l 347 173 l 868 173 l 868 1215 l 1215 1215 l 1215 173 l 1041 173 l 1041 0 l 173 0 l 173 173 l 0 173 l 0 347 "},"Ã":{"x_min":0,"x_max":1215.28125,"ha":1389,"o":"m 347 1041 l 347 868 l 520 868 l 520 1041 l 347 1041 m 347 520 l 347 347 l 868 347 l 868 520 l 694 520 l 694 694 l 520 694 l 520 520 l 347 520 m 0 520 l 173 520 l 173 694 l 347 694 l 347 868 l 173 868 l 173 1041 l 347 1041 l 347 1215 l 694 1215 l 694 1041 l 868 1041 l 868 1215 l 1041 1215 l 1041 1041 l 868 1041 l 868 694 l 1041 694 l 1041 520 l 1215 520 l 1215 0 l 868 0 l 868 173 l 347 173 l 347 0 l 0 0 l 0 520 "},"‐":{"x_min":173.609375,"x_max":1215.28125,"ha":1389,"o":"m 173 694 l 1215 694 l 1215 520 l 173 520 l 173 694 "},"©":{"x_min":0,"x_max":1388.890625,"ha":1389,"o":"m 520 868 l 868 868 l 868 694 l 520 694 l 520 520 l 868 520 l 868 347 l 520 347 l 520 520 l 347 520 l 347 694 l 520 694 l 520 868 m 173 868 l 173 347 l 347 347 l 347 173 l 1041 173 l 1041 347 l 1215 347 l 1215 868 l 1041 868 l 1041 1041 l 347 1041 l 347 868 l 173 868 m 0 868 l 173 868 l 173 1041 l 347 1041 l 352 1215 l 1041 1215 l 1041 1041 l 1215 1041 l 1215 868 l 1388 868 l 1388 347 l 1215 347 l 1215 173 l 1041 173 l 1036 0 l 347 0 l 347 173 l 173 173 l 173 347 l 0 347 l 0 868 "},"˘":{"x_min":0,"x_max":0,"ha":1389},"≥":{"x_min":0,"x_max":0,"ha":1389},"\f":{"x_min":0,"x_max":0,"ha":1389},"D":{"x_min":0,"x_max":1215.28125,"ha":1389,"o":"m 347 1041 l 347 173 l 694 173 l 694 347 l 868 347 l 868 868 l 694 868 l 694 1041 l 347 1041 m 0 1215 l 868 1215 l 868 1041 l 1041 1041 l 1041 868 l 1215 868 l 1215 347 l 1041 347 l 1041 173 l 868 173 l 868 0 l 0 0 l 0 1215 "},"ÿ":{"x_min":173.609375,"x_max":1215.28125,"ha":1389,"o":"m 694 1215 l 694 1041 l 520 1041 l 520 1215 l 694 1215 m 1041 1215 l 1041 1041 l 868 1041 l 868 1215 l 1041 1215 m 173 868 l 520 868 l 520 694 l 694 694 l 694 520 l 868 520 l 868 694 l 1041 694 l 1041 868 l 1215 868 l 1215 694 l 1041 694 l 1041 347 l 868 347 l 868 173 l 694 173 l 694 -173 l 347 -173 l 347 0 l 520 0 l 520 173 l 694 173 l 694 347 l 520 347 l 520 520 l 347 520 l 347 694 l 173 694 l 173 868 "},"ł":{"x_min":0,"x_max":0,"ha":1389},"Ł":{"x_min":0,"x_max":0,"ha":1389},"$":{"x_min":173.609375,"x_max":1215.28125,"ha":1389,"o":"m 868 1215 l 868 1041 l 1215 1041 l 1215 868 l 520 868 l 520 694 l 1041 694 l 1041 520 l 1215 520 l 1215 347 l 1041 347 l 1041 173 l 868 173 l 868 0 l 520 0 l 520 173 l 173 173 l 173 347 l 868 347 l 868 520 l 347 520 l 347 694 l 173 694 l 173 868 l 347 868 l 347 1041 l 520 1041 l 520 1215 l 868 1215 "},"w":{"x_min":0,"x_max":1215.28125,"ha":1389,"o":"m 0 868 l 347 868 l 347 347 l 520 347 l 520 520 l 694 520 l 694 347 l 868 347 l 868 868 l 1215 868 l 1215 173 l 1041 173 l 1041 0 l 694 0 l 694 173 l 520 173 l 520 0 l 173 0 l 173 173 l 0 173 l 0 868 "},"\\":{"x_min":173.609375,"x_max":1215.28125,"ha":1389,"o":"m 347 1215 l 347 1041 l 520 1041 l 520 868 l 694 868 l 694 694 l 868 694 l 868 520 l 1041 520 l 1041 347 l 1215 347 l 1215 0 l 1041 0 l 1041 173 l 868 173 l 868 347 l 694 347 l 694 520 l 520 520 l 520 694 l 347 694 l 347 868 l 173 868 l 173 1215 l 347 1215 "},"∫":{"x_min":0,"x_max":0,"ha":1389},"Ì":{"x_min":173.609375,"x_max":1215.28125,"ha":1389,"o":"m 694 1215 l 694 1041 l 868 1041 l 868 868 l 1215 868 l 1215 694 l 868 694 l 868 173 l 1215 173 l 1215 0 l 173 0 l 173 173 l 520 173 l 520 694 l 173 694 l 173 868 l 694 868 l 694 1041 l 520 1041 l 520 1215 l 694 1215 "},"Ç":{"x_min":0,"x_max":1215.28125,"ha":1389,"o":"m 0 868 l 173 868 l 179 1041 l 347 1041 l 352 1215 l 1041 1215 l 1041 1041 l 1215 1041 l 1215 868 l 868 868 l 868 1041 l 520 1041 l 520 868 l 347 868 l 347 520 l 520 520 l 520 347 l 868 347 l 868 520 l 1215 520 l 1215 347 l 1041 347 l 1041 173 l 868 173 l 868 0 l 694 0 l 694 -173 l 520 -173 l 520 0 l 694 0 l 694 173 l 347 173 l 347 347 l 173 347 l 173 520 l 0 520 l 0 868 "},"C":{"x_min":0,"x_max":1215.28125,"ha":1389,"o":"m 0 868 l 173 868 l 173 1041 l 347 1041 l 347 1215 l 1041 1215 l 1041 1041 l 1215 1041 l 1215 868 l 868 868 l 868 1041 l 520 1041 l 520 868 l 347 868 l 347 347 l 520 347 l 520 173 l 868 173 l 868 347 l 1215 347 l 1215 173 l 1041 173 l 1041 0 l 347 0 l 347 173 l 173 173 l 173 347 l 0 347 l 0 868 "},"!":{"x_min":347.21875,"x_max":1041.671875,"ha":1389,"o":"m 520 173 l 868 173 l 868 0 l 520 0 l 520 173 m 868 1215 l 868 1041 l 1041 1041 l 1041 520 l 868 520 l 868 347 l 520 347 l 520 520 l 347 520 l 347 1041 l 520 1041 l 520 1215 l 868 1215 "},"ç":{"x_min":173.609375,"x_max":1041.671875,"ha":1389,"o":"m 347 1041 l 868 1041 l 868 868 l 1041 868 l 1041 694 l 694 694 l 694 868 l 520 868 l 520 694 l 347 694 l 347 520 l 520 520 l 520 347 l 868 347 l 868 520 l 1041 520 l 1041 347 l 868 347 l 868 173 l 694 173 l 694 0 l 520 0 l 520 -173 l 347 -173 l 347 0 l 520 0 l 520 173 l 347 179 l 347 347 l 173 347 l 173 868 l 347 868 l 347 1041 "},"È":{"x_min":173.609375,"x_max":1215.28125,"ha":1389,"o":"m 694 1215 l 694 1041 l 868 1041 l 868 868 l 1215 868 l 1215 694 l 520 694 l 520 520 l 1041 520 l 1041 347 l 520 347 l 520 173 l 1215 173 l 1215 0 l 173 0 l 173 868 l 694 868 l 694 1041 l 520 1041 l 520 1215 l 694 1215 "},"X":{"x_min":0,"x_max":1215.28125,"ha":1389,"o":"m 0 347 l 173 347 l 173 520 l 347 520 l 347 694 l 173 694 l 173 868 l 0 868 l 0 1215 l 347 1215 l 347 1041 l 520 1041 l 520 868 l 694 868 l 694 1041 l 868 1041 l 868 1215 l 1215 1215 l 1215 868 l 1041 868 l 1041 694 l 868 694 l 868 520 l 1041 520 l 1041 347 l 1215 347 l 1215 0 l 868 0 l 868 173 l 694 173 l 694 347 l 520 347 l 520 173 l 347 173 l 347 0 l 0 0 l 0 347 "},"ô":{"x_min":173.609375,"x_max":1041.671875,"ha":1389,"o":"m 520 694 l 520 173 l 694 173 l 694 694 l 520 694 m 347 1041 l 347 868 l 868 868 l 868 1041 l 347 1041 m 868 1215 l 868 1041 l 1041 1041 l 1041 868 l 868 868 l 868 694 l 1041 694 l 1041 173 l 868 173 l 868 0 l 347 0 l 347 173 l 173 173 l 173 694 l 347 694 l 347 868 l 173 868 l 173 1041 l 347 1041 l 347 1215 l 868 1215 "},"}":{"x_min":347.21875,"x_max":1215.28125,"ha":1389,"o":"m 868 1215 l 868 1041 l 1041 1041 l 1041 694 l 1215 694 l 1215 520 l 1041 520 l 1041 173 l 868 173 l 868 0 l 347 0 l 347 173 l 694 173 l 694 520 l 868 520 l 868 694 l 694 694 l 694 1041 l 347 1041 l 347 1215 l 868 1215 "},"â":{"x_min":173.609375,"x_max":1215.28125,"ha":1389,"o":"m 520 694 l 520 173 l 694 173 l 694 694 l 520 694 m 347 1041 l 347 868 l 868 868 l 868 1041 l 347 1041 m 868 1215 l 868 1041 l 1041 1041 l 1041 173 l 1215 173 l 1215 0 l 868 0 l 868 173 l 694 173 l 694 0 l 347 0 l 347 173 l 173 173 l 173 694 l 347 694 l 347 868 l 173 868 l 173 1041 l 347 1041 l 347 1215 l 868 1215 "},"ø":{"x_min":0,"x_max":1215.28125,"ha":1389,"o":"m 520 347 l 520 173 l 694 173 l 694 347 l 520 347 m 520 694 l 520 520 l 694 520 l 694 694 l 520 694 m 0 173 l 173 173 l 173 694 l 347 694 l 352 868 l 868 868 l 868 694 l 1041 694 l 1041 868 l 1215 868 l 1215 694 l 1041 694 l 1041 173 l 868 173 l 868 0 l 347 0 l 347 173 l 173 173 l 173 0 l 0 0 l 0 173 "},"Δ":{"x_min":0,"x_max":0,"ha":1389},"Ä":{"x_min":0,"x_max":1215.28125,"ha":1389,"o":"m 520 1215 l 520 1041 l 347 1041 l 347 1215 l 520 1215 m 347 520 l 347 347 l 868 347 l 868 520 l 694 520 l 694 694 l 520 694 l 520 520 l 347 520 m 868 1215 l 868 1041 l 694 1041 l 694 1215 l 868 1215 m 0 520 l 173 520 l 173 694 l 347 694 l 347 868 l 868 868 l 868 694 l 1041 694 l 1041 520 l 1215 520 l 1215 0 l 868 0 l 868 173 l 347 173 l 347 0 l 0 0 l 0 520 "},"‰":{"x_min":0,"x_max":0,"ha":1389},"N":{"x_min":0,"x_max":1215.28125,"ha":1389,"o":"m 0 1215 l 347 1215 l 347 1041 l 520 1041 l 520 868 l 694 868 l 694 694 l 868 694 l 868 1215 l 1215 1215 l 1215 0 l 868 0 l 868 173 l 694 173 l 694 347 l 520 347 l 520 520 l 347 520 l 347 0 l 0 0 l 0 1215 "},"—":{"x_min":0,"x_max":1388.890625,"ha":1389,"o":"m 0 694 l 1388 694 l 1388 520 l 0 520 l 0 694 "},"2":{"x_min":0,"x_max":1215.28125,"ha":1389,"o":"m 0 347 l 173 347 l 173 520 l 347 520 l 347 694 l 694 694 l 694 868 l 868 868 l 868 1041 l 347 1041 l 347 868 l 0 868 l 0 1041 l 173 1041 l 179 1215 l 1041 1215 l 1041 1041 l 1215 1041 l 1215 694 l 1041 694 l 1041 520 l 868 520 l 868 347 l 520 347 l 520 173 l 1215 173 l 1215 0 l 0 0 l 0 347 "},"⁄":{"x_min":0,"x_max":0,"ha":1389},"ü":{"x_min":173.609375,"x_max":1215.28125,"ha":1389,"o":"m 520 1215 l 520 1041 l 347 1041 l 347 1215 l 520 1215 m 868 1215 l 868 1041 l 694 1041 l 694 1215 l 868 1215 m 173 868 l 520 868 l 520 173 l 694 173 l 694 868 l 1041 868 l 1041 173 l 1215 173 l 1215 0 l 868 0 l 868 173 l 694 173 l 694 0 l 347 0 l 347 173 l 173 173 l 173 868 "},"":{"x_min":0,"x_max":0,"ha":1389},"Ó":{"x_min":0,"x_max":1215.28125,"ha":1389,"o":"m 347 694 l 347 173 l 868 173 l 868 694 l 347 694 m 0 694 l 173 694 l 173 868 l 520 868 l 520 1041 l 694 1041 l 694 1215 l 868 1215 l 868 1041 l 694 1041 l 694 868 l 1041 868 l 1041 694 l 1215 694 l 1215 173 l 1041 173 l 1041 0 l 173 0 l 173 173 l 0 173 l 0 694 "},"˜":{"x_min":0,"x_max":0,"ha":1389},"ˇ":{"x_min":0,"x_max":0,"ha":1389},"Ÿ":{"x_min":173.609375,"x_max":1215.28125,"ha":1389,"o":"m 520 1215 l 520 1041 l 347 1041 l 347 1215 l 520 1215 m 1041 1215 l 1041 1041 l 868 1041 l 868 1215 l 1041 1215 m 173 868 l 520 868 l 520 520 l 868 520 l 868 868 l 1215 868 l 1215 520 l 1041 520 l 1041 347 l 868 347 l 868 0 l 520 0 l 520 347 l 347 347 l 347 520 l 173 520 l 173 868 "},"€":{"x_min":0,"x_max":1215.28125,"ha":1389,"o":"m 0 520 l 173 520 l 173 694 l 0 694 l 0 868 l 347 868 l 347 1041 l 520 1041 l 520 1215 l 1041 1215 l 1041 1041 l 1215 1041 l 1215 868 l 1041 868 l 1041 1041 l 694 1041 l 694 868 l 868 868 l 868 694 l 520 694 l 520 520 l 868 520 l 868 347 l 694 347 l 694 173 l 1041 173 l 1041 347 l 1215 347 l 1215 173 l 1041 173 l 1041 0 l 520 0 l 520 173 l 347 173 l 347 347 l 0 347 l 0 520 "},"ß":{"x_min":0,"x_max":1215.28125,"ha":1389,"o":"m 347 1041 l 347 520 l 520 520 l 520 347 l 868 347 l 868 694 l 694 694 l 694 868 l 868 868 l 868 1041 l 347 1041 m 0 1041 l 173 1041 l 179 1215 l 1041 1215 l 1041 1041 l 1215 1041 l 1215 868 l 1041 868 l 1041 694 l 1215 694 l 1215 347 l 1041 347 l 1041 173 l 520 173 l 520 347 l 347 347 l 347 0 l 0 0 l 0 1041 "},"Ω":{"x_min":0,"x_max":0,"ha":1389},"s":{"x_min":0,"x_max":1215.28125,"ha":1389,"o":"m 0 173 l 694 173 l 694 347 l 173 347 l 173 520 l 0 520 l 0 694 l 173 694 l 173 868 l 1041 868 l 1041 694 l 520 694 l 520 520 l 1041 520 l 1041 347 l 1215 347 l 1215 173 l 1041 173 l 1041 0 l 0 0 l 0 173 "},"?":{"x_min":0,"x_max":1215.28125,"ha":1389,"o":"m 347 173 l 868 173 l 868 0 l 347 0 l 347 173 m 0 1041 l 173 1041 l 173 1215 l 1041 1215 l 1041 1041 l 1215 1041 l 1215 694 l 1041 694 l 1041 520 l 868 520 l 868 347 l 347 347 l 347 520 l 520 520 l 520 694 l 868 694 l 868 1041 l 347 1041 l 347 868 l 0 868 l 0 1041 "},"c":{"x_min":0,"x_max":1215.28125,"ha":1389,"o":"m 0 694 l 173 694 l 173 868 l 1041 868 l 1041 694 l 1215 694 l 1215 520 l 868 520 l 868 694 l 347 694 l 347 173 l 1215 173 l 1215 0 l 173 0 l 173 173 l 0 173 l 0 694 "},"¶":{"x_min":0,"x_max":0,"ha":1389},"•":{"x_min":173.609375,"x_max":1041.671875,"ha":1389,"o":"m 347 868 l 868 868 l 868 694 l 1041 694 l 1041 347 l 868 347 l 868 173 l 347 173 l 347 347 l 173 347 l 173 694 l 347 694 l 347 868 "},"(":{"x_min":347.21875,"x_max":1041.671875,"ha":1389,"o":"m 1041 1215 l 1041 1041 l 868 1041 l 868 868 l 694 868 l 694 347 l 868 347 l 868 173 l 1041 173 l 1041 0 l 694 0 l 694 173 l 520 173 l 520 347 l 347 347 l 347 868 l 520 868 l 520 1041 l 694 1041 l 694 1215 l 1041 1215 "},"◊":{"x_min":0,"x_max":0,"ha":1389},"­":{"x_min":173.609375,"x_max":1041.671875,"ha":1389,"o":"m 173 694 l 1041 694 l 1041 520 l 173 520 l 173 694 "},":":{"x_min":520.828125,"x_max":868.0625,"ha":1389,"o":"m 520 347 l 868 347 l 868 0 l 520 0 l 520 347 m 520 868 l 868 868 l 868 520 l 520 520 l 520 868 "},"Û":{"x_min":0,"x_max":1215.28125,"ha":1389,"o":"m 868 1215 l 868 1041 l 1041 1041 l 1041 868 l 868 868 l 868 1041 l 347 1041 l 347 868 l 173 868 l 173 1041 l 347 1041 l 347 1215 l 868 1215 m 0 694 l 347 694 l 347 173 l 868 173 l 868 694 l 1215 694 l 1215 173 l 1041 173 l 1041 0 l 173 0 l 173 173 l 0 173 l 0 694 "},"V":{"x_min":0,"x_max":1215.28125,"ha":1389,"o":"m 0 1215 l 347 1215 l 347 520 l 520 520 l 520 347 l 694 347 l 694 520 l 868 520 l 868 1215 l 1215 1215 l 1215 520 l 1041 520 l 1041 347 l 868 347 l 868 173 l 694 173 l 694 0 l 520 0 l 520 173 l 347 173 l 347 347 l 173 347 l 173 520 l 0 520 l 0 1215 "}," ":{"x_min":0,"x_max":0,"ha":1389},"@":{"x_min":0,"x_max":1215.28125,"ha":1389,"o":"m 694 868 l 694 520 l 1041 520 l 1041 868 l 694 868 m 0 1041 l 173 1041 l 173 1215 l 1041 1215 l 1041 1041 l 1215 1041 l 1215 347 l 694 347 l 694 520 l 520 520 l 520 868 l 694 868 l 694 1041 l 347 1041 l 347 173 l 1215 173 l 1215 0 l 173 0 l 173 173 l 0 173 l 0 1041 "},"¾":{"x_min":0,"x_max":0,"ha":1389},"i":{"x_min":347.21875,"x_max":1041.671875,"ha":1389,"o":"m 868 1215 l 868 1041 l 520 1041 l 520 1215 l 868 1215 m 347 868 l 868 868 l 868 173 l 1041 173 l 1041 0 l 347 0 l 347 173 l 520 173 l 520 694 l 347 694 l 347 868 "},"≤":{"x_min":0,"x_max":0,"ha":1389},"m":{"x_min":0,"x_max":1215.28125,"ha":1389,"o":"m 0 868 l 520 868 l 520 694 l 694 694 l 694 868 l 1041 868 l 1041 694 l 1215 694 l 1215 0 l 868 0 l 868 520 l 694 520 l 694 347 l 520 347 l 520 520 l 347 520 l 347 0 l 0 0 l 0 868 "},"ž":{"x_min":0,"x_max":0,"ha":1389},"á":{"x_min":173.609375,"x_max":1215.28125,"ha":1389,"o":"m 520 694 l 520 173 l 694 173 l 694 694 l 520 694 m 868 1215 l 868 1041 l 694 1041 l 694 868 l 1041 868 l 1041 173 l 1215 173 l 1215 0 l 868 0 l 868 173 l 694 173 l 694 0 l 347 0 l 347 173 l 173 173 l 173 694 l 347 694 l 347 868 l 520 868 l 520 1041 l 694 1041 l 694 1215 l 868 1215 "},"×":{"x_min":173.609375,"x_max":1041.671875,"ha":1389,"o":"m 173 1041 l 347 1041 l 347 868 l 520 868 l 520 694 l 694 694 l 694 868 l 868 868 l 868 1041 l 1041 1041 l 1041 868 l 868 868 l 868 694 l 694 694 l 694 520 l 868 520 l 868 347 l 1041 347 l 1041 173 l 868 173 l 868 347 l 694 347 l 694 520 l 520 520 l 520 347 l 347 347 l 347 173 l 173 173 l 173 347 l 347 347 l 347 520 l 520 520 l 520 694 l 347 694 l 347 868 l 173 868 l 173 1041 "},"K":{"x_min":0,"x_max":1215.28125,"ha":1389,"o":"m 0 1215 l 347 1215 l 347 694 l 520 694 l 520 868 l 694 868 l 694 1041 l 868 1041 l 868 1215 l 1215 1215 l 1215 1041 l 1041 1041 l 1041 868 l 868 868 l 868 694 l 694 694 l 694 520 l 868 520 l 868 347 l 1041 347 l 1041 173 l 1215 173 l 1215 0 l 694 0 l 694 173 l 520 173 l 520 347 l 347 347 l 347 0 l 0 0 l 0 1215 "},"7":{"x_min":0,"x_max":1215.28125,"ha":1389,"o":"m 0 1215 l 1215 1215 l 1215 868 l 1041 868 l 1041 694 l 868 694 l 868 520 l 694 520 l 694 0 l 347 0 l 347 520 l 520 520 l 520 694 l 694 694 l 694 868 l 868 868 l 868 1041 l 347 1041 l 347 868 l 0 868 l 0 1215 "},"¨":{"x_min":0,"x_max":0,"ha":1389},"Y":{"x_min":173.609375,"x_max":1215.28125,"ha":1389,"o":"m 520 1215 l 520 694 l 868 694 l 868 1215 l 1215 1215 l 1215 694 l 1041 694 l 1041 520 l 868 520 l 868 0 l 520 0 l 520 520 l 347 520 l 347 694 l 173 694 l 173 1215 l 520 1215 "},"E":{"x_min":0,"x_max":1215.28125,"ha":1389,"o":"m 0 1215 l 1215 1215 l 1215 1041 l 347 1041 l 347 694 l 1041 694 l 1041 520 l 347 520 l 347 173 l 1215 173 l 1215 0 l 0 0 l 0 1215 "},"Ô":{"x_min":0,"x_max":1215.28125,"ha":1389,"o":"m 347 694 l 347 173 l 868 173 l 868 694 l 347 694 m 347 1041 l 347 868 l 868 868 l 868 1041 l 347 1041 m 0 694 l 173 694 l 173 1041 l 347 1041 l 347 1215 l 868 1215 l 868 1041 l 1041 1041 l 1041 694 l 1215 694 l 1215 173 l 1041 173 l 1041 0 l 173 0 l 173 173 l 0 173 l 0 694 "},"Ï":{"x_min":173.609375,"x_max":1215.28125,"ha":1389,"o":"m 520 1215 l 520 1041 l 347 1041 l 347 1215 l 520 1215 m 1041 1215 l 1041 1041 l 868 1041 l 868 1215 l 1041 1215 m 173 868 l 1215 868 l 1215 694 l 868 694 l 868 173 l 1215 173 l 1215 0 l 173 0 l 173 173 l 520 173 l 520 694 l 173 694 l 173 868 "},"‹":{"x_min":173.609375,"x_max":694.453125,"ha":1389,"o":"m 694 868 l 520 868 l 520 694 l 347 694 l 347 520 l 520 520 l 520 347 l 694 347 l 694 173 l 520 173 l 520 347 l 347 347 l 347 520 l 173 520 l 173 694 l 347 694 l 347 868 l 520 868 l 520 1041 l 694 1041 l 694 868 "},"±":{"x_min":0,"x_max":0,"ha":1389},"ì":{"x_min":347.21875,"x_max":868.0625,"ha":1389,"o":"m 347 694 l 868 694 l 868 0 l 520 0 l 520 520 l 347 520 l 347 694 m 694 1215 l 694 1041 l 868 1041 l 868 868 l 694 868 l 694 1041 l 520 1041 l 520 1215 l 694 1215 "},"|":{"x_min":520.828125,"x_max":868.0625,"ha":1389,"o":"m 868 1215 l 868 -173 l 520 -173 l 520 1215 l 868 1215 "},"§":{"x_min":0,"x_max":0,"ha":1389},"q":{"x_min":0,"x_max":1215.28125,"ha":1389,"o":"m 347 694 l 347 173 l 868 173 l 868 694 l 347 694 m 0 694 l 173 694 l 173 868 l 1215 868 l 1215 -173 l 868 -173 l 868 0 l 173 0 l 173 173 l 0 173 l 0 694 "},"b":{"x_min":0,"x_max":1215.28125,"ha":1389,"o":"m 347 694 l 347 173 l 868 173 l 868 694 l 347 694 m 0 1215 l 347 1215 l 347 868 l 1041 868 l 1041 694 l 1215 694 l 1215 173 l 1041 173 l 1041 0 l 0 0 l 0 1215 "},"®":{"x_min":0,"x_max":1388.890625,"ha":1389,"o":"m 173 868 l 173 173 l 347 173 l 347 868 l 173 868 m 520 694 l 520 520 l 868 520 l 868 694 l 520 694 m 347 173 l 347 0 l 1041 0 l 1041 173 l 868 173 l 868 347 l 520 347 l 520 173 l 347 173 m 347 1041 l 347 868 l 868 868 l 868 694 l 1041 694 l 1041 520 l 868 520 l 868 347 l 1041 347 l 1041 173 l 1215 173 l 1215 868 l 1041 868 l 1041 1041 l 347 1041 m 0 868 l 173 868 l 173 1041 l 347 1041 l 352 1215 l 1041 1215 l 1041 1041 l 1215 1041 l 1215 868 l 1388 868 l 1388 173 l 1215 173 l 1215 0 l 1041 0 l 1036 -173 l 347 -173 l 347 0 l 173 0 l 173 173 l 0 173 l 0 868 "},"L":{"x_min":0,"x_max":1215.28125,"ha":1389,"o":"m 0 1215 l 347 1215 l 347 173 l 1215 173 l 1215 0 l 0 0 l 0 1215 "}," ":{"x_min":0,"x_max":0,"ha":1389},"♪":{"x_min":173.609375,"x_max":1215.28125,"ha":1389,"o":"m 868 1215 l 868 1041 l 1041 1041 l 1041 868 l 1215 868 l 1215 694 l 1041 694 l 1041 520 l 868 520 l 868 694 l 1041 694 l 1041 868 l 868 868 l 868 1041 l 694 1041 l 694 173 l 520 173 l 520 0 l 347 0 l 347 173 l 173 173 l 173 347 l 347 347 l 347 520 l 520 520 l 520 1215 l 868 1215 "},"∑":{"x_min":0,"x_max":0,"ha":1389},"À":{"x_min":0,"x_max":1215.28125,"ha":1389,"o":"m 347 520 l 347 347 l 868 347 l 868 520 l 694 520 l 694 694 l 520 694 l 520 520 l 347 520 m 0 520 l 173 520 l 173 694 l 347 694 l 347 868 l 520 868 l 520 1041 l 347 1041 l 347 1215 l 520 1215 l 520 1041 l 694 1041 l 694 868 l 868 868 l 868 694 l 1041 694 l 1041 520 l 1215 520 l 1215 0 l 868 0 l 868 173 l 347 173 l 347 0 l 0 0 l 0 520 "},"+":{"x_min":173.609375,"x_max":1215.28125,"ha":1389,"o":"m 520 1041 l 868 1041 l 868 694 l 1215 694 l 1215 520 l 868 520 l 868 173 l 520 173 l 520 520 l 173 520 l 173 694 l 520 694 l 520 1041 "},"½":{"x_min":0,"x_max":0,"ha":1389},"Ë":{"x_min":173.609375,"x_max":1215.28125,"ha":1389,"o":"m 694 1215 l 694 1041 l 520 1041 l 520 1215 l 694 1215 m 1041 1215 l 1041 1041 l 868 1041 l 868 1215 l 1041 1215 m 173 868 l 1215 868 l 1215 694 l 520 694 l 520 520 l 1041 520 l 1041 347 l 520 347 l 520 173 l 1215 173 l 1215 0 l 173 0 l 173 868 "},"'":{"x_min":520.828125,"x_max":868.0625,"ha":1389,"o":"m 868 1215 l 868 694 l 520 694 l 520 1215 l 868 1215 "},"Š":{"x_min":0,"x_max":1215.28125,"ha":1389,"o":"m 0 868 l 173 868 l 179 1041 l 347 1041 l 353 1215 l 1041 1215 l 1041 1041 l 1215 1041 l 1215 868 l 868 868 l 868 694 l 520 694 l 520 520 l 868 520 l 868 347 l 1215 347 l 1215 173 l 1041 173 l 1041 0 l 347 0 l 347 173 l 173 173 l 173 347 l 0 347 l 0 868 "},"˛":{"x_min":0,"x_max":0,"ha":1389},"ð":{"x_min":173.609375,"x_max":1041.671875,"ha":1389,"o":"m 347 1041 l 347 868 l 520 868 l 520 1041 l 347 1041 m 520 520 l 520 173 l 694 173 l 694 520 l 520 520 m 520 868 l 520 694 l 694 694 l 694 868 l 520 868 m 694 1215 l 694 1041 l 868 1041 l 868 1215 l 1041 1215 l 1041 1041 l 868 1041 l 868 868 l 1041 862 l 1041 173 l 868 173 l 868 0 l 347 0 l 347 173 l 173 173 l 173 520 l 347 520 l 347 868 l 173 868 l 173 1041 l 347 1041 l 347 1215 l 694 1215 "},"ı":{"x_min":0,"x_max":0,"ha":1389},"ä":{"x_min":173.609375,"x_max":1215.28125,"ha":1389,"o":"m 520 1215 l 520 1041 l 347 1041 l 347 1215 l 520 1215 m 520 694 l 520 173 l 694 173 l 694 694 l 520 694 m 868 1215 l 868 1041 l 694 1041 l 694 1215 l 868 1215 m 347 868 l 1041 868 l 1041 173 l 1215 173 l 1215 0 l 868 0 l 868 173 l 694 173 l 694 0 l 347 0 l 347 173 l 173 173 l 173 694 l 347 694 l 347 868 "},"¹":{"x_min":173.609375,"x_max":1215.28125,"ha":1389,"o":"m 868 1215 l 868 520 l 1215 520 l 1215 347 l 173 347 l 173 520 l 520 520 l 520 868 l 347 868 l 347 1041 l 520 1041 l 520 1215 l 868 1215 "},"£":{"x_min":0,"x_max":1215.28125,"ha":1389,"o":"m 0 173 l 173 173 l 173 520 l 0 520 l 0 694 l 173 694 l 173 1041 l 347 1041 l 347 1215 l 1041 1215 l 1041 1041 l 1215 1041 l 1215 868 l 868 868 l 868 1041 l 520 1041 l 520 694 l 868 694 l 868 520 l 520 520 l 520 173 l 868 173 l 868 347 l 1215 347 l 1215 173 l 1041 173 l 1041 0 l 0 0 l 0 173 "},"W":{"x_min":0,"x_max":1215.28125,"ha":1389,"o":"m 0 1215 l 347 1215 l 347 694 l 520 694 l 520 868 l 694 868 l 694 694 l 868 694 l 868 1215 l 1215 1215 l 1215 347 l 1041 347 l 1041 0 l 868 0 l 868 173 l 694 173 l 694 347 l 520 347 l 520 173 l 347 173 l 347 0 l 173 0 l 173 347 l 0 347 l 0 1215 "},"v":{"x_min":0,"x_max":1215.28125,"ha":1389,"o":"m 0 868 l 347 868 l 347 520 l 520 520 l 520 347 l 694 347 l 694 520 l 868 520 l 868 868 l 1215 868 l 1215 520 l 1041 520 l 1041 347 l 868 347 l 868 173 l 694 173 l 694 0 l 520 0 l 520 173 l 347 173 l 347 347 l 173 347 l 173 520 l 0 520 l 0 868 "},">":{"x_min":347.21875,"x_max":1215.28125,"ha":1389,"o":"m 694 1215 l 694 1041 l 868 1041 l 868 868 l 1041 868 l 1041 694 l 1215 694 l 1215 520 l 1041 520 l 1041 347 l 868 347 l 868 173 l 694 173 l 694 0 l 347 0 l 347 173 l 520 173 l 520 347 l 694 347 l 694 520 l 868 520 l 868 694 l 694 694 l 694 868 l 520 868 l 520 1041 l 347 1041 l 347 1215 l 694 1215 "},"û":{"x_min":173.609375,"x_max":1215.28125,"ha":1389,"o":"m 868 1215 l 868 1041 l 1041 1041 l 1041 868 l 868 868 l 868 1041 l 347 1041 l 347 868 l 173 868 l 173 1041 l 347 1041 l 347 1215 l 868 1215 m 173 694 l 520 694 l 520 173 l 694 173 l 694 694 l 1041 694 l 1041 173 l 1215 173 l 1215 0 l 868 0 l 868 173 l 694 173 l 694 0 l 347 0 l 347 173 l 173 173 l 173 694 "},"Ð":{"x_min":0,"x_max":1215.28125,"ha":1389,"o":"m 520 520 l 520 173 l 694 173 l 694 347 l 868 347 l 868 868 l 694 868 l 694 1041 l 520 1041 l 520 694 l 694 694 l 694 520 l 520 520 m 0 694 l 173 694 l 179 1215 l 868 1215 l 868 1041 l 1041 1041 l 1041 868 l 1215 868 l 1215 347 l 1041 347 l 1041 173 l 868 173 l 868 0 l 173 0 l 173 520 l 0 520 l 0 694 "},"ˉ":{"x_min":0,"x_max":0,"ha":1389},"r":{"x_min":0,"x_max":1215.28125,"ha":1389,"o":"m 0 868 l 1041 868 l 1041 694 l 1215 694 l 1215 520 l 868 520 l 868 694 l 347 694 l 347 0 l 0 0 l 0 868 "},"x":{"x_min":0,"x_max":1215.28125,"ha":1389,"o":"m 0 173 l 173 173 l 173 347 l 347 347 l 347 520 l 173 520 l 173 694 l 0 694 l 0 868 l 347 868 l 347 694 l 520 694 l 520 520 l 694 520 l 694 694 l 868 694 l 868 868 l 1215 868 l 1215 694 l 1041 694 l 1041 520 l 868 520 l 868 347 l 1041 347 l 1041 173 l 1215 173 l 1215 0 l 868 0 l 868 173 l 694 173 l 694 347 l 520 347 l 520 173 l 347 173 l 347 0 l 0 0 l 0 173 "},"è":{"x_min":173.609375,"x_max":1041.671875,"ha":1389,"o":"m 520 694 l 520 520 l 868 520 l 868 694 l 520 694 m 520 1215 l 520 1041 l 694 1041 l 694 868 l 868 862 l 868 694 l 1041 694 l 1041 347 l 520 347 l 520 173 l 868 173 l 868 0 l 347 0 l 347 173 l 173 173 l 173 694 l 347 694 l 347 868 l 520 868 l 520 1041 l 347 1041 l 347 1215 l 520 1215 "},"Ø":{"x_min":0,"x_max":1215.28125,"ha":1389,"o":"m 347 347 l 347 173 l 868 173 l 868 694 l 694 694 l 694 520 l 520 520 l 520 347 l 347 347 m 347 1041 l 347 520 l 520 520 l 520 694 l 694 694 l 694 868 l 868 868 l 868 1041 l 347 1041 m 0 1041 l 173 1041 l 179 1215 l 1041 1215 l 1041 1041 l 1215 1041 l 1215 173 l 1041 173 l 1041 0 l 173 0 l 173 173 l 0 173 l 0 1041 "},"÷":{"x_min":173.609375,"x_max":1041.671875,"ha":1389,"o":"m 520 347 l 694 347 l 694 173 l 520 173 l 520 347 m 520 1041 l 694 1041 l 694 868 l 520 868 l 520 1041 m 173 694 l 1041 694 l 1041 520 l 173 520 l 173 694 "},"μ":{"x_min":0,"x_max":0,"ha":1389},"h":{"x_min":0,"x_max":1215.28125,"ha":1389,"o":"m 0 1215 l 347 1215 l 347 868 l 1041 868 l 1041 694 l 1215 694 l 1215 0 l 868 0 l 868 694 l 347 694 l 347 0 l 0 0 l 0 1215 "},".":{"x_min":520.828125,"x_max":868.0625,"ha":1389,"o":"m 520 347 l 868 347 l 868 0 l 520 0 l 520 347 "},"f":{"x_min":173.609375,"x_max":1215.28125,"ha":1389,"o":"m 1041 1215 l 1041 1041 l 1215 1041 l 1215 868 l 868 868 l 868 1041 l 694 1041 l 694 694 l 1041 694 l 1041 520 l 694 520 l 694 0 l 347 0 l 347 520 l 173 520 l 173 694 l 347 694 l 347 1041 l 520 1041 l 520 1215 l 1041 1215 "},"“":{"x_min":173.609375,"x_max":1215.28125,"ha":1389,"o":"m 520 1215 l 520 868 l 694 868 l 694 1215 l 1041 1215 l 1041 868 l 1215 868 l 1215 694 l 868 694 l 868 868 l 694 868 l 694 694 l 347 694 l 347 868 l 173 868 l 173 1215 l 520 1215 "},"A":{"x_min":0,"x_max":1215.28125,"ha":1389,"o":"m 347 868 l 347 520 l 868 520 l 868 868 l 694 868 l 694 1041 l 520 1041 l 520 868 l 347 868 m 0 868 l 173 868 l 173 1041 l 347 1041 l 347 1215 l 868 1215 l 868 1041 l 1041 1041 l 1041 868 l 1215 868 l 1215 0 l 868 0 l 868 347 l 347 347 l 347 0 l 0 0 l 0 868 "},"O":{"x_min":0,"x_max":1215.28125,"ha":1389,"o":"m 347 1041 l 347 173 l 868 173 l 868 1041 l 347 1041 m 0 1041 l 173 1041 l 173 1215 l 1041 1215 l 1041 1041 l 1215 1041 l 1215 173 l 1041 173 l 1041 0 l 173 0 l 173 173 l 0 173 l 0 1041 "},"π":{"x_min":0,"x_max":1215.28125,"ha":1389,"o":"m 173 520 l 173 347 l 520 347 l 520 868 l 173 868 l 173 694 l 347 694 l 347 520 l 173 520 m 694 520 l 694 347 l 1041 347 l 1041 868 l 694 868 l 694 694 l 868 694 l 868 520 l 694 520 m 0 868 l 173 868 l 173 1041 l 347 1041 l 347 1215 l 868 1215 l 868 1041 l 1041 1041 l 1041 868 l 1215 868 l 1215 0 l 1041 0 l 1041 173 l 868 173 l 861 0 l 520 0 l 520 173 l 347 173 l 347 0 l 0 0 l 0 868 "},"‘":{"x_min":694.453125,"x_max":1041.671875,"ha":1389,"o":"m 1041 1215 l 1041 868 l 868 868 l 868 694 l 1041 694 l 1041 520 l 868 520 l 868 694 l 694 694 l 694 1215 l 1041 1215 "},"3":{"x_min":0,"x_max":1215.28125,"ha":1389,"o":"m 0 347 l 347 347 l 347 173 l 868 173 l 868 520 l 347 520 l 347 694 l 520 694 l 520 868 l 694 868 l 694 1041 l 173 1041 l 173 1215 l 1215 1215 l 1215 1041 l 1041 1041 l 1041 868 l 868 868 l 868 694 l 1041 694 l 1041 520 l 1215 520 l 1215 173 l 1041 173 l 1041 0 l 173 0 l 173 173 l 0 173 l 0 347 "},"9":{"x_min":0,"x_max":1215.28125,"ha":1389,"o":"m 347 1041 l 347 694 l 868 694 l 868 1041 l 347 1041 m 0 1041 l 173 1041 l 173 1215 l 1041 1215 l 1041 1041 l 1215 1041 l 1215 347 l 1041 347 l 1041 173 l 868 173 l 868 0 l 173 0 l 173 173 l 694 173 l 694 347 l 868 347 l 868 520 l 173 520 l 173 694 l 0 694 l 0 1041 "},"l":{"x_min":347.21875,"x_max":1041.671875,"ha":1389,"o":"m 868 1215 l 868 173 l 1041 173 l 1041 0 l 347 0 l 347 173 l 520 173 l 520 1041 l 347 1041 l 347 1215 l 868 1215 "},"":{"x_min":0,"x_max":0,"ha":1389},"4":{"x_min":0,"x_max":1215.28125,"ha":1389,"o":"m 347 694 l 347 520 l 694 520 l 694 868 l 520 868 l 520 694 l 347 694 m 0 694 l 173 694 l 173 868 l 347 868 l 347 1041 l 520 1041 l 520 1215 l 1041 1215 l 1041 520 l 1215 520 l 1215 347 l 1041 347 l 1041 0 l 694 0 l 694 347 l 0 347 l 0 694 "},"Ü":{"x_min":0,"x_max":1215.28125,"ha":1389,"o":"m 520 1215 l 520 1041 l 347 1041 l 347 1215 l 520 1215 m 868 1215 l 868 1041 l 694 1041 l 694 1215 l 868 1215 m 0 868 l 347 868 l 347 173 l 868 173 l 868 868 l 1215 868 l 1215 173 l 1041 173 l 1041 0 l 173 0 l 173 173 l 0 173 l 0 868 "},"à":{"x_min":173.609375,"x_max":1215.28125,"ha":1389,"o":"m 520 694 l 520 173 l 694 173 l 694 694 l 520 694 m 520 1215 l 520 1041 l 694 1041 l 694 868 l 1041 868 l 1041 173 l 1215 173 l 1215 0 l 868 0 l 868 173 l 694 173 l 694 0 l 347 0 l 347 173 l 173 173 l 173 694 l 347 694 l 347 868 l 520 868 l 520 1041 l 347 1041 l 347 1215 l 520 1215 "},"ó":{"x_min":173.609375,"x_max":1041.671875,"ha":1389,"o":"m 520 694 l 520 173 l 694 173 l 694 694 l 520 694 m 868 1215 l 868 1041 l 694 1041 l 694 868 l 868 862 l 868 694 l 1041 694 l 1041 173 l 868 173 l 868 0 l 347 0 l 347 173 l 173 173 l 173 694 l 347 694 l 347 868 l 520 868 l 520 1041 l 694 1041 l 694 1215 l 868 1215 "},"\r":{"x_min":0,"x_max":0,"ha":1389}}}
